<mxfile host="app.diagrams.net" modified="2023-08-28T22:02:16.698Z" agent="Mozilla/5.0 (Windows NT 10.0; Win64; x64) AppleWebKit/537.36 (KHTML, like Gecko) Chrome/115.0.0.0 Safari/537.36 OPR/101.0.0.0" version="21.6.9" etag="CkZiOI7louTq4H0f-g6A" type="github">
  <diagram name="PÃ¡gina-1" id="ZhF9tuqSD_f1ewS1DzV7">
    <mxGraphModel>
      <root>
        <mxCell id="0" />
        <mxCell id="1" parent="0" />
      </root>
    </mxGraphModel>
  </diagram>
</mxfile>
